<mxfile host="app.diagrams.net" modified="2023-07-23T05:46:13.434Z" agent="Mozilla/5.0 (Macintosh; Intel Mac OS X 10_15_7) AppleWebKit/537.36 (KHTML, like Gecko) Chrome/114.0.0.0 Safari/537.36" etag="3XrB-AthiIBUi1pLkSIB" version="21.5.1" type="github">
  <diagram name="Page-1" id="2FFYeGc214194W6a_yBx">
    <mxGraphModel dx="1306" dy="695" grid="1" gridSize="10" guides="1" tooltips="1" connect="1" arrows="1" fold="1" page="1" pageScale="1" pageWidth="1100" pageHeight="850" math="0" shadow="0">
      <root>
        <mxCell id="0" />
        <mxCell id="1" parent="0" />
        <mxCell id="guea7j0CLcbY7V1YF3n8-1" value="Reservations&lt;br style=&quot;font-size: 14px;&quot;&gt;HTTP 3000" style="rounded=0;whiteSpace=wrap;html=1;fontSize=14;" parent="1" vertex="1">
          <mxGeometry x="500" y="360" width="120" height="60" as="geometry" />
        </mxCell>
        <mxCell id="guea7j0CLcbY7V1YF3n8-2" value="Auth&lt;br style=&quot;font-size: 14px;&quot;&gt;HTTP 3001&lt;br style=&quot;font-size: 14px;&quot;&gt;TCP 3002" style="rounded=0;whiteSpace=wrap;html=1;fontSize=14;" parent="1" vertex="1">
          <mxGeometry x="500" y="620" width="120" height="60" as="geometry" />
        </mxCell>
        <mxCell id="guea7j0CLcbY7V1YF3n8-3" value="Actor" style="shape=umlActor;verticalLabelPosition=bottom;verticalAlign=top;html=1;outlineConnect=0;fontSize=14;" parent="1" vertex="1">
          <mxGeometry x="250" y="460" width="50" height="90" as="geometry" />
        </mxCell>
        <mxCell id="guea7j0CLcbY7V1YF3n8-7" value="" style="endArrow=classic;startArrow=classic;html=1;rounded=0;entryX=0;entryY=0.5;entryDx=0;entryDy=0;fontSize=14;" parent="1" target="guea7j0CLcbY7V1YF3n8-2" edge="1">
          <mxGeometry width="50" height="50" relative="1" as="geometry">
            <mxPoint x="310" y="560" as="sourcePoint" />
            <mxPoint x="370" y="530" as="targetPoint" />
          </mxGeometry>
        </mxCell>
        <mxCell id="guea7j0CLcbY7V1YF3n8-8" value="POST&lt;br style=&quot;font-size: 14px;&quot;&gt;/login" style="edgeLabel;html=1;align=center;verticalAlign=middle;resizable=0;points=[];fontSize=14;" parent="guea7j0CLcbY7V1YF3n8-7" vertex="1" connectable="0">
          <mxGeometry x="0.1175" y="-3" relative="1" as="geometry">
            <mxPoint as="offset" />
          </mxGeometry>
        </mxCell>
        <mxCell id="guea7j0CLcbY7V1YF3n8-9" value="JWT" style="image;sketch=0;aspect=fixed;html=1;points=[];align=center;fontSize=14;image=img/lib/mscae/Key.svg;" parent="1" vertex="1">
          <mxGeometry x="310" y="460" width="31" height="50" as="geometry" />
        </mxCell>
        <mxCell id="guea7j0CLcbY7V1YF3n8-11" value="" style="endArrow=classic;html=1;rounded=0;entryX=0;entryY=0.5;entryDx=0;entryDy=0;fontSize=14;" parent="1" target="guea7j0CLcbY7V1YF3n8-1" edge="1">
          <mxGeometry width="50" height="50" relative="1" as="geometry">
            <mxPoint x="350" y="470" as="sourcePoint" />
            <mxPoint x="400" y="420" as="targetPoint" />
          </mxGeometry>
        </mxCell>
        <mxCell id="guea7j0CLcbY7V1YF3n8-12" value="POST&lt;br style=&quot;font-size: 14px;&quot;&gt;/reservations" style="edgeLabel;html=1;align=center;verticalAlign=middle;resizable=0;points=[];fontSize=14;" parent="guea7j0CLcbY7V1YF3n8-11" vertex="1" connectable="0">
          <mxGeometry x="-0.0866" y="1" relative="1" as="geometry">
            <mxPoint as="offset" />
          </mxGeometry>
        </mxCell>
        <mxCell id="guea7j0CLcbY7V1YF3n8-13" value="" style="endArrow=classic;startArrow=classic;html=1;rounded=0;entryX=0.5;entryY=1;entryDx=0;entryDy=0;exitX=0.5;exitY=0;exitDx=0;exitDy=0;fontSize=14;" parent="1" source="guea7j0CLcbY7V1YF3n8-2" target="guea7j0CLcbY7V1YF3n8-1" edge="1">
          <mxGeometry width="50" height="50" relative="1" as="geometry">
            <mxPoint x="540" y="560" as="sourcePoint" />
            <mxPoint x="590" y="510" as="targetPoint" />
          </mxGeometry>
        </mxCell>
        <mxCell id="guea7j0CLcbY7V1YF3n8-14" value="MessagePattern&lt;br style=&quot;font-size: 14px;&quot;&gt;authenticate" style="edgeLabel;html=1;align=center;verticalAlign=middle;resizable=0;points=[];fontSize=14;" parent="guea7j0CLcbY7V1YF3n8-13" vertex="1" connectable="0">
          <mxGeometry x="-0.0982" y="-2" relative="1" as="geometry">
            <mxPoint as="offset" />
          </mxGeometry>
        </mxCell>
        <mxCell id="guea7j0CLcbY7V1YF3n8-15" value="JWT" style="image;sketch=0;aspect=fixed;html=1;points=[];align=center;fontSize=14;image=img/lib/mscae/Key.svg;" parent="1" vertex="1">
          <mxGeometry x="620" y="500" width="31" height="50" as="geometry" />
        </mxCell>
        <mxCell id="guea7j0CLcbY7V1YF3n8-16" value="MongoDB" style="shape=datastore;whiteSpace=wrap;html=1;fontSize=14;" parent="1" vertex="1">
          <mxGeometry x="740" y="460" width="130" height="110" as="geometry" />
        </mxCell>
        <mxCell id="guea7j0CLcbY7V1YF3n8-17" value="Users" style="endArrow=classic;startArrow=classic;html=1;rounded=0;exitX=1;exitY=0.5;exitDx=0;exitDy=0;entryX=0.15;entryY=0.95;entryDx=0;entryDy=0;entryPerimeter=0;fontSize=14;" parent="1" source="guea7j0CLcbY7V1YF3n8-2" target="guea7j0CLcbY7V1YF3n8-16" edge="1">
          <mxGeometry width="50" height="50" relative="1" as="geometry">
            <mxPoint x="650" y="670" as="sourcePoint" />
            <mxPoint x="700" y="620" as="targetPoint" />
          </mxGeometry>
        </mxCell>
        <mxCell id="guea7j0CLcbY7V1YF3n8-18" value="" style="endArrow=classic;startArrow=classic;html=1;rounded=0;entryX=1;entryY=0.5;entryDx=0;entryDy=0;exitX=0.15;exitY=0.05;exitDx=0;exitDy=0;exitPerimeter=0;fontSize=14;" parent="1" source="guea7j0CLcbY7V1YF3n8-16" target="guea7j0CLcbY7V1YF3n8-1" edge="1">
          <mxGeometry width="50" height="50" relative="1" as="geometry">
            <mxPoint x="660" y="465" as="sourcePoint" />
            <mxPoint x="710" y="415" as="targetPoint" />
          </mxGeometry>
        </mxCell>
        <mxCell id="guea7j0CLcbY7V1YF3n8-19" value="Reservations" style="edgeLabel;html=1;align=center;verticalAlign=middle;resizable=0;points=[];fontSize=14;" parent="guea7j0CLcbY7V1YF3n8-18" vertex="1" connectable="0">
          <mxGeometry x="0.0658" y="-3" relative="1" as="geometry">
            <mxPoint as="offset" />
          </mxGeometry>
        </mxCell>
        <mxCell id="guea7j0CLcbY7V1YF3n8-21" value="Notifications&lt;br&gt;TCP 3004" style="rounded=0;whiteSpace=wrap;html=1;fontSize=14;" parent="1" vertex="1">
          <mxGeometry x="670" y="190" width="120" height="60" as="geometry" />
        </mxCell>
        <mxCell id="guea7j0CLcbY7V1YF3n8-22" value="Payments&lt;br&gt;TCP 3003" style="rounded=0;whiteSpace=wrap;html=1;fontSize=14;" parent="1" vertex="1">
          <mxGeometry x="320" y="190" width="120" height="60" as="geometry" />
        </mxCell>
        <mxCell id="guea7j0CLcbY7V1YF3n8-23" value="" style="endArrow=classic;html=1;rounded=0;entryX=0.5;entryY=1;entryDx=0;entryDy=0;" parent="1" target="guea7j0CLcbY7V1YF3n8-22" edge="1">
          <mxGeometry width="50" height="50" relative="1" as="geometry">
            <mxPoint x="550" y="350" as="sourcePoint" />
            <mxPoint x="600" y="300" as="targetPoint" />
          </mxGeometry>
        </mxCell>
        <mxCell id="guea7j0CLcbY7V1YF3n8-24" value="MessagePattern&lt;br style=&quot;font-size: 14px;&quot;&gt;create_charge" style="edgeLabel;html=1;align=center;verticalAlign=middle;resizable=0;points=[];fontSize=14;" parent="guea7j0CLcbY7V1YF3n8-23" vertex="1" connectable="0">
          <mxGeometry x="-0.0515" y="-3" relative="1" as="geometry">
            <mxPoint as="offset" />
          </mxGeometry>
        </mxCell>
        <mxCell id="guea7j0CLcbY7V1YF3n8-25" value="" style="endArrow=classic;html=1;rounded=0;exitX=1;exitY=0.5;exitDx=0;exitDy=0;entryX=0;entryY=0.5;entryDx=0;entryDy=0;" parent="1" source="guea7j0CLcbY7V1YF3n8-22" target="guea7j0CLcbY7V1YF3n8-21" edge="1">
          <mxGeometry width="50" height="50" relative="1" as="geometry">
            <mxPoint x="460" y="230" as="sourcePoint" />
            <mxPoint x="510" y="180" as="targetPoint" />
          </mxGeometry>
        </mxCell>
        <mxCell id="guea7j0CLcbY7V1YF3n8-26" value="&lt;font style=&quot;font-size: 14px;&quot;&gt;MessagePattern&lt;br&gt;notify_email&lt;/font&gt;" style="edgeLabel;html=1;align=center;verticalAlign=middle;resizable=0;points=[];" parent="guea7j0CLcbY7V1YF3n8-25" vertex="1" connectable="0">
          <mxGeometry x="0.034" y="-3" relative="1" as="geometry">
            <mxPoint as="offset" />
          </mxGeometry>
        </mxCell>
        <mxCell id="guea7j0CLcbY7V1YF3n8-27" value="&lt;span style=&quot;font-size: 14px;&quot;&gt;결제사&lt;/span&gt;" style="ellipse;whiteSpace=wrap;html=1;" parent="1" vertex="1">
          <mxGeometry x="70" y="130" width="120" height="80" as="geometry" />
        </mxCell>
        <mxCell id="guea7j0CLcbY7V1YF3n8-28" value="&lt;font style=&quot;font-size: 14px;&quot;&gt;Gmail&lt;/font&gt;" style="ellipse;whiteSpace=wrap;html=1;" parent="1" vertex="1">
          <mxGeometry x="940" y="130" width="120" height="80" as="geometry" />
        </mxCell>
        <mxCell id="guea7j0CLcbY7V1YF3n8-29" value="" style="endArrow=classic;html=1;rounded=0;entryX=1;entryY=0.5;entryDx=0;entryDy=0;exitX=0;exitY=0.5;exitDx=0;exitDy=0;" parent="1" source="guea7j0CLcbY7V1YF3n8-22" target="guea7j0CLcbY7V1YF3n8-27" edge="1">
          <mxGeometry width="50" height="50" relative="1" as="geometry">
            <mxPoint x="260" y="230" as="sourcePoint" />
            <mxPoint x="310" y="180" as="targetPoint" />
          </mxGeometry>
        </mxCell>
        <mxCell id="guea7j0CLcbY7V1YF3n8-30" value="" style="endArrow=classic;html=1;rounded=0;exitX=1;exitY=0.5;exitDx=0;exitDy=0;entryX=0;entryY=0.5;entryDx=0;entryDy=0;" parent="1" source="guea7j0CLcbY7V1YF3n8-21" target="guea7j0CLcbY7V1YF3n8-28" edge="1">
          <mxGeometry width="50" height="50" relative="1" as="geometry">
            <mxPoint x="860" y="290" as="sourcePoint" />
            <mxPoint x="910" y="240" as="targetPoint" />
          </mxGeometry>
        </mxCell>
      </root>
    </mxGraphModel>
  </diagram>
</mxfile>
